<?xml version="1.0" encoding="iso-8859-1"?>
<!-- Generator: Adobe Illustrator 28.3.0, SVG Export Plug-In . SVG Version: 6.00 Build 0)  -->
<svg version="1.1" id="Layer_1" xmlns="http://www.w3.org/2000/svg" xmlns:xlink="http://www.w3.org/1999/xlink" x="0px" y="0px"
	 width="477.791px" height="498.742px" viewBox="0 0 477.791 498.742" enable-background="new 0 0 477.791 498.742"
	 xml:space="preserve">
<path fill="#F17203" d="M375.348,301.805H98.456c-19.036,0-34.612-15.575-34.612-34.612V50.871
	c0-19.036,15.575-34.612,34.612-34.612h276.892c19.036,0,34.612,15.575,34.612,34.612v216.322
	C409.96,286.23,394.385,301.805,375.348,301.805z"/>
<g>
	<path fill="#FFFFFF" d="M357.46,123.085h2.311c-5.574,0-10.366-3.95-11.431-9.422l-1.704-8.759
		c-2.178-11.2-11.988-19.286-23.399-19.286h-33.5c-0.246,0-0.484,0.031-0.729,0.037v-2.649c0-17.332-14.051-31.383-31.383-31.383
		H133.441c-17.333,0-31.383,14.051-31.383,31.383v52.419c0,0.254,0.032,0.499,0.038,0.752c-8.418,0.062-15.226,6.895-15.226,15.327
		c0,8.472,6.867,15.339,15.339,15.339h31.175c0.119,0,0.229-0.032,0.347-0.035h25.26c21.78,0,41.302,13.571,48.841,34.004
		l72.408,0.279c1.713,0.544,3.496,0.919,5.322,1.162c-2.776,4.551-4.824,9.589-5.9,14.987h-54.474
		c-8.472,0-15.339,6.867-15.339,15.339c0,8.472,6.867,15.339,15.339,15.339h58.919c7.786,14.77,23.277,24.875,41.102,24.875
		c25.615,0,46.454-20.839,46.454-46.455c0-9.042-2.637-17.461-7.124-24.607c13.918-3.213,24.305-15.657,24.305-30.552v-16.712
		C388.844,137.136,374.793,123.085,357.46,123.085z M289.739,116.297h27.86l0.627,3.224c3.711,19.082,20.013,33.132,39.234,34.181
		v0.063c0.388,0,0.705,0.316,0.705,0.704v16.712c0,0.388-0.316,0.704-0.705,0.704h-67.722c-0.35,0-0.609-0.271-0.663-0.605
		c-0.014-0.326-0.036-0.649-0.041-0.978v-53.3C289.034,116.613,289.351,116.297,289.739,116.297z M225.889,170.203
		c-15.333-20.984-40.12-34.074-66.899-34.074h-25.549c-0.388,0-0.704-0.316-0.704-0.704V83.006c0-0.388,0.316-0.704,0.704-0.704
		h124.186c0.388,0,0.704,0.316,0.704,0.704v86.717c0,0.202,0.001,0.404,0.003,0.605L225.889,170.203z M325.209,239.684
		c-7.359,0-13.345-5.987-13.345-13.345s5.987-13.345,13.345-13.345s13.345,5.987,13.345,13.345S332.567,239.684,325.209,239.684z"/>
	<path fill="#FFFFFF" d="M155.062,179.884c-25.615,0-46.454,20.839-46.454,46.454c0,25.615,20.839,46.455,46.454,46.455
		s46.454-20.839,46.454-46.455C201.516,200.724,180.677,179.884,155.062,179.884z M155.062,239.684
		c-7.359,0-13.345-5.987-13.345-13.345s5.987-13.345,13.345-13.345s13.345,5.987,13.345,13.345S162.42,239.684,155.062,239.684z"/>
</g>
<path fill="#384745" d="M173.809,393.336h21.499v55.743c0,11.072,4.635,15.707,13.518,15.707c8.755,0,14.033-4.505,14.033-16.093
	v-55.358h20.855v54.972c0,19.955-13.002,33.473-35.531,33.473c-21.114,0-34.374-12.359-34.374-31.541V393.336z"/>
<path fill="#384745" d="M117.429,393.336h21.757l29.353,86.898h-21.757l-5.408-16.479h-29.095l-5.276,16.479H88.206L117.429,393.336
	z M117.429,447.793h18.666l-5.922-18.281c-2.06-6.179-2.961-14.932-2.961-14.932h-0.515c0,0-1.287,8.881-3.217,14.802
	L117.429,447.793z"/>
<path fill="#384745" d="M329.804,393.336h57.547v15.963h-36.048v18.668h30.254v15.963h-30.254v20.34h37.335v15.963h-58.834V393.336z
	"/>
<path fill="#384745" d="M399.84,393.336h35.79c16.994,0,28.452,8.239,28.452,24.202c0,13.004-8.885,20.858-17.51,23.561
	c2.575,2.188,4.505,5.149,6.052,8.239c3.604,7.338,6.05,15.448,13.646,15.448c1.932,0,3.476-0.643,3.476-0.643l-1.674,15.32
	c0,0-4.635,1.159-8.625,1.159c-10.299,0-16.221-3.992-22.273-17.767c-2.575-6.177-6.179-16.994-10.942-16.994h-4.893v34.374H399.84
	V393.336z M421.339,408.914v21.369h7.724c6.182,0,13.39-1.93,13.39-11.198c0-7.596-4.893-10.171-10.815-10.171H421.339z"/>
<path fill="#384745" d="M259.227,393.072h21.565v71.151h36.286v16.012h-57.851V393.072z"/>
<path fill="#384745" d="M9.837,393.072h21.565v32.927h26.473v-32.927h21.565v87.163H57.874v-36.929H31.402v36.929H9.837V393.072z"/>
<g>
</g>
<g>
</g>
<g>
</g>
<g>
</g>
<g>
</g>
<g>
</g>
</svg>
