<?xml version="1.0" encoding="iso-8859-1"?>
<!-- Generator: Adobe Illustrator 28.3.0, SVG Export Plug-In . SVG Version: 6.00 Build 0)  -->
<svg version="1.1" id="Layer_1" xmlns="http://www.w3.org/2000/svg" xmlns:xlink="http://www.w3.org/1999/xlink" x="0px" y="0px"
	 width="358.739px" height="301.861px" viewBox="0 0 358.739 301.861" enable-background="new 0 0 358.739 301.861"
	 xml:space="preserve">
<path fill="#F17203" d="M317.817,295.13H40.925c-19.036,0-34.612-15.575-34.612-34.612V44.196c0-19.036,15.575-34.612,34.612-34.612
	h276.892c19.036,0,34.612,15.575,34.612,34.612v216.322C352.428,279.555,336.853,295.13,317.817,295.13z"/>
<g>
	<path fill="#FFFFFF" d="M299.929,116.41h2.311c-5.574,0-10.366-3.95-11.431-9.422l-1.704-8.759
		c-2.178-11.2-11.988-19.286-23.399-19.286h-33.5c-0.246,0-0.484,0.031-0.729,0.037v-2.649c0-17.332-14.051-31.383-31.383-31.383
		H75.91c-17.333,0-31.383,14.051-31.383,31.383v52.419c0,0.254,0.032,0.499,0.038,0.752c-8.418,0.062-15.226,6.895-15.226,15.327
		c0,8.472,6.867,15.339,15.339,15.339h31.175c0.119,0,0.229-0.032,0.347-0.035h25.26c21.78,0,41.302,13.571,48.841,34.004
		l72.408,0.279c1.713,0.544,3.496,0.919,5.322,1.162c-2.776,4.551-4.824,9.589-5.9,14.987h-54.474
		c-8.472,0-15.339,6.867-15.339,15.339c0,8.472,6.867,15.339,15.339,15.339h58.919c7.786,14.77,23.277,24.875,41.102,24.875
		c25.615,0,46.454-20.839,46.454-46.455c0-9.042-2.637-17.461-7.124-24.607c13.918-3.213,24.305-15.657,24.305-30.552v-16.712
		C331.312,130.461,317.262,116.41,299.929,116.41z M232.207,109.622h27.86l0.627,3.224c3.711,19.082,20.013,33.132,39.234,34.181
		v0.063c0.388,0,0.705,0.316,0.705,0.704v16.712c0,0.388-0.316,0.704-0.705,0.704h-67.722c-0.35,0-0.609-0.271-0.663-0.605
		c-0.014-0.326-0.036-0.649-0.041-0.978v-53.3C231.503,109.938,231.819,109.622,232.207,109.622z M168.358,163.528
		c-15.333-20.984-40.12-34.074-66.899-34.074H75.91c-0.388,0-0.704-0.316-0.704-0.704V76.331c0-0.388,0.316-0.704,0.704-0.704
		h124.186c0.388,0,0.704,0.316,0.704,0.704v86.717c0,0.202,0.001,0.404,0.003,0.605L168.358,163.528z M267.677,233.009
		c-7.359,0-13.345-5.987-13.345-13.345s5.987-13.345,13.345-13.345s13.345,5.987,13.345,13.345S275.036,233.009,267.677,233.009z"/>
	<path fill="#FFFFFF" d="M97.53,173.209c-25.615,0-46.454,20.839-46.454,46.454c0,25.615,20.839,46.455,46.454,46.455
		s46.454-20.839,46.454-46.455C143.985,194.049,123.146,173.209,97.53,173.209z M97.53,233.009c-7.359,0-13.345-5.987-13.345-13.345
		s5.987-13.345,13.345-13.345s13.345,5.987,13.345,13.345S104.889,233.009,97.53,233.009z"/>
</g>
<g>
</g>
<g>
</g>
<g>
</g>
<g>
</g>
<g>
</g>
<g>
</g>
</svg>
