<?xml version="1.0" encoding="iso-8859-1"?>
<!-- Generator: Adobe Illustrator 28.3.0, SVG Export Plug-In . SVG Version: 6.00 Build 0)  -->
<svg version="1.1" id="Layer_1" xmlns="http://www.w3.org/2000/svg" xmlns:xlink="http://www.w3.org/1999/xlink" x="0px" y="0px"
	 width="633.948px" height="187.484px" viewBox="0 0 633.948 187.484" enable-background="new 0 0 633.948 187.484"
	 xml:space="preserve">
<path fill="#384745" d="M378.324,56.272h17.803v46.159c0,9.169,3.838,13.007,11.194,13.007c7.25,0,11.62-3.731,11.62-13.326v-45.84
	h17.269v45.52c0,16.524-10.767,27.718-29.422,27.718c-17.484,0-28.464-10.234-28.464-26.118V56.272z"/>
<path fill="#384745" d="M331.638,56.272h18.016l24.306,71.957h-18.016l-4.478-13.645h-24.093l-4.369,13.645H307.44L331.638,56.272z
	 M331.638,101.366h15.457l-4.904-15.138c-1.706-5.117-2.452-12.365-2.452-12.365h-0.427c0,0-1.065,7.354-2.663,12.257
	L331.638,101.366z"/>
<path fill="#384745" d="M507.499,56.272h47.653v13.219h-29.85v15.459h25.052v13.219h-25.052v16.843h30.916v13.219h-48.718V56.272z"
	/>
<path fill="#384745" d="M565.493,56.272h29.637c14.072,0,23.56,6.823,23.56,20.041c0,10.768-7.357,17.272-14.499,19.51
	c2.133,1.812,3.731,4.263,5.011,6.823c2.984,6.077,5.009,12.792,11.299,12.792c1.6,0,2.879-0.533,2.879-0.533l-1.386,12.686
	c0,0-3.838,0.96-7.142,0.96c-8.528,0-13.432-3.305-18.443-14.713c-2.133-5.115-5.117-14.072-9.061-14.072h-4.052v28.464h-17.803
	V56.272z M583.296,69.172v17.695h6.396c5.119,0,11.088-1.598,11.088-9.273c0-6.29-4.052-8.423-8.955-8.423H583.296z"/>
<path fill="#384745" d="M449.056,56.053h17.857v58.918h30.047v13.259h-47.904V56.053z"/>
<path fill="#384745" d="M242.545,56.053h17.857v27.266h21.921V56.053h17.857v72.177h-17.857V97.65h-21.921v30.58h-17.857V56.053z"/>
<path fill="#F17203" d="M183.245,172.234H29.368c-10.579,0-19.235-8.656-19.235-19.235V32.783c0-10.579,8.656-19.235,19.235-19.235
	h153.877c10.579,0,19.235,8.656,19.235,19.235V153C202.48,163.579,193.825,172.234,183.245,172.234z"/>
<g>
	<path fill="#FFFFFF" d="M173.305,72.915h1.284c-3.098,0-5.761-2.195-6.352-5.236l-0.947-4.868
		c-1.21-6.224-6.662-10.718-13.003-10.718H135.67c-0.137,0-0.269,0.017-0.405,0.02v-1.472c0-9.632-7.808-17.441-17.441-17.441H48.81
		c-9.632,0-17.441,7.808-17.441,17.441v29.131c0,0.141,0.018,0.278,0.021,0.418c-4.678,0.035-8.462,3.832-8.462,8.518
		c0,4.708,3.816,8.524,8.524,8.524h17.325c0.066,0,0.127-0.018,0.193-0.019h14.038c12.104,0,22.953,7.542,27.143,18.897
		l40.239,0.155c0.952,0.302,1.943,0.511,2.958,0.646c-1.542,2.529-2.681,5.329-3.279,8.328H99.797c-4.708,0-8.524,3.816-8.524,8.524
		s3.816,8.524,8.524,8.524h32.743c4.327,8.208,12.936,13.824,22.842,13.824c14.235,0,25.816-11.581,25.816-25.816
		c0-5.025-1.466-9.704-3.959-13.675c7.735-1.786,13.507-8.701,13.507-16.979v-9.287C190.745,80.723,182.937,72.915,173.305,72.915z
		 M135.67,69.142h15.483l0.349,1.791c2.062,10.604,11.122,18.412,21.804,18.995v0.035c0.216,0,0.392,0.176,0.392,0.391v9.287
		c0,0.216-0.176,0.391-0.392,0.391H135.67c-0.194,0-0.339-0.15-0.369-0.336c-0.008-0.181-0.02-0.361-0.023-0.544v-29.62
		C135.278,69.317,135.454,69.142,135.67,69.142z M100.187,99.099c-8.521-11.661-22.296-18.936-37.178-18.936H48.81
		c-0.216,0-0.391-0.176-0.391-0.391V50.641c0-0.216,0.176-0.391,0.391-0.391h69.014c0.216,0,0.391,0.176,0.391,0.391v48.191
		c0,0.112,0,0.224,0.001,0.336L100.187,99.099z M155.382,137.712c-4.089,0-7.416-3.327-7.416-7.416c0-4.089,3.327-7.416,7.416-7.416
		c4.089,0,7.416,3.327,7.416,7.416C162.798,134.385,159.471,137.712,155.382,137.712z"/>
	<path fill="#FFFFFF" d="M60.826,104.479c-14.235,0-25.816,11.581-25.816,25.816c0,14.235,11.581,25.816,25.816,25.816
		s25.816-11.581,25.816-25.816C86.642,116.061,75.061,104.479,60.826,104.479z M60.826,137.712c-4.089,0-7.416-3.327-7.416-7.416
		c0-4.089,3.327-7.416,7.416-7.416s7.416,3.327,7.416,7.416C68.242,134.385,64.915,137.712,60.826,137.712z"/>
</g>
<g>
</g>
<g>
</g>
<g>
</g>
<g>
</g>
<g>
</g>
<g>
</g>
</svg>
